# xmcd CD database file
# Copyright (C) 1993-1996 Ti Kan
#
# Track frame offsets:
#	150
#	20682
#	42470
#	79212
#	100032
#	122170
#	145432
#	166827
#	187232
#	207925
#
# Disc length: 3039 seconds
#
# Revision: 1
# Processed by: cddbd v1.4b41PL1 Copyright (c) Steve Scherf et al.
# Submitted via: EasyCD2 v3.00 - Copyright (c) 1997 Greg Leichner
#
DISCID=8f0bdd0a
DTITLE=Litttle Hatch And The Houserockers - Well, All Right!
DYEAR=1900
DGENRE=
TTITLE0=Houserockers' Lumpty-Lump (w/o Little Hatch)
TTITLE1=Well, I'm Walkin'
TTITLE2=If I Can't Come In
TTITLE3=Crosscut Saw
TTITLE4=Rock With Me, Baby
TTITLE5=We're Gonna Have a Ball (Down at the Union Hall)
TTITLE6=She's All Right With Me
TTITLE7=Please Don't Treat Me Wrong
TTITLE8=Can't You See What You're Doing To Me?
TTITLE9=Do You Wanna Jump?
EXTD=Live recording at the Grand Emporium in Kansas City, MO of "The Little Ma
EXTD=n With the Big Sound"\n
EXTT0=
EXTT1=
EXTT2=
EXTT3=
EXTT4=
EXTT5=
EXTT6=
EXTT7=
EXTT8=
EXTT9=
PLAYORDER=
